<svg width="34" height="34" viewBox="0 0 34 34" fill="none" xmlns="http://www.w3.org/2000/svg">
<path d="M17 17C19.2543 17 21.4163 16.1045 23.0104 14.5104C24.6045 12.9163 25.5 10.7543 25.5 8.5C25.5 6.24566 24.6045 4.08365 23.0104 2.48959C21.4163 0.895533 19.2543 0 17 0C14.7457 0 12.5837 0.895533 10.9896 2.48959C9.39553 4.08365 8.5 6.24566 8.5 8.5C8.5 10.7543 9.39553 12.9163 10.9896 14.5104C12.5837 16.1045 14.7457 17 17 17ZM22.6667 8.5C22.6667 10.0029 22.0696 11.4442 21.0069 12.5069C19.9442 13.5696 18.5029 14.1667 17 14.1667C15.4971 14.1667 14.0558 13.5696 12.9931 12.5069C11.9304 11.4442 11.3333 10.0029 11.3333 8.5C11.3333 6.99711 11.9304 5.55577 12.9931 4.49306C14.0558 3.43036 15.4971 2.83333 17 2.83333C18.5029 2.83333 19.9442 3.43036 21.0069 4.49306C22.0696 5.55577 22.6667 6.99711 22.6667 8.5ZM34 31.1667C34 34 31.1667 34 31.1667 34H2.83333C2.83333 34 0 34 0 31.1667C0 28.3333 2.83333 19.8333 17 19.8333C31.1667 19.8333 34 28.3333 34 31.1667ZM31.1667 31.1553C31.1638 30.4583 30.7303 28.3617 28.8093 26.4407C26.962 24.5933 23.4855 22.6667 17 22.6667C10.5117 22.6667 7.038 24.5933 5.19067 26.4407C3.26967 28.3617 2.839 30.4583 2.83333 31.1553H31.1667Z" fill="#AEAEAE"/>
</svg>
