<svg width="174" height="240" viewBox="0 0 174 240" fill="none" xmlns="http://www.w3.org/2000/svg">
<path fill-rule="evenodd" clip-rule="evenodd" d="M28.7603 89.3694C28.7603 55.0022 54.5576 28.8288 87 28.8288C119.442 28.8288 145.24 55.0022 145.24 89.3694C145.24 96.5769 143.307 107.262 137.178 119.496C128.8 136.22 116.863 154.43 104.995 170.886L123.197 194.765C137.218 175.827 152.385 153.383 162.88 132.432C170.874 116.475 174 101.384 174 89.3694C174 40.0119 136.24 0 87 0C37.7598 0 0 40.0119 0 89.3694C0 101.384 3.1259 116.475 11.1198 132.432C26.2914 162.718 51.2279 196.126 68.3471 217.55C79.2628 231.211 87 240 87 240C87 240 94.4256 231.565 104.99 218.378C104.992 218.376 104.995 218.373 104.996 218.371L86.4679 194.064C84.7578 191.884 82.9901 189.608 81.1811 187.248C65.6393 166.977 48.001 141.812 36.8219 119.496C30.6931 107.262 28.7603 96.5769 28.7603 89.3694Z" fill="url(#paint0_linear_64_355)"/>
<path d="M87 127.207C108.443 127.207 125.826 109.783 125.826 88.2883C125.826 66.794 108.443 49.3694 87 49.3694C65.5568 49.3694 48.1736 66.794 48.1736 88.2883C48.1736 109.783 65.5568 127.207 87 127.207Z" fill="url(#paint1_linear_64_355)"/>
<defs>
<linearGradient id="paint0_linear_64_355" x1="87" y1="0" x2="87" y2="240" gradientUnits="userSpaceOnUse">
<stop stop-color="#3486F4"/>
<stop offset="1" stop-color="#2AD1FB"/>
</linearGradient>
<linearGradient id="paint1_linear_64_355" x1="87" y1="49.3694" x2="87" y2="127.207" gradientUnits="userSpaceOnUse">
<stop stop-color="#3486F4"/>
<stop offset="1" stop-color="#2AD1FB"/>
</linearGradient>
</defs>
</svg>
