<svg width="34" height="34" viewBox="0 0 34 34" fill="none" xmlns="http://www.w3.org/2000/svg">
<path fill-rule="evenodd" clip-rule="evenodd" d="M24.3526 21.9274L33.4982 31.0732C33.8197 31.3949 34.0002 31.8311 34 32.2859C33.9998 32.7406 33.819 33.1767 33.4974 33.4982C33.1757 33.8197 32.7395 34.0002 32.2847 34C31.8299 33.9998 31.3939 33.819 31.0724 33.4973L21.9268 24.3515C19.1929 26.4691 15.7549 27.4657 12.3123 27.1384C8.86971 26.8111 5.6811 25.1846 3.39513 22.5897C1.10916 19.9949 -0.102446 16.6266 0.00679344 13.1701C0.116033 9.71363 1.53791 6.42859 3.98317 3.98327C6.42843 1.53795 9.71339 0.116036 13.1698 0.00679361C16.6262 -0.102448 19.9944 1.10919 22.5892 3.39521C25.1839 5.68124 26.8104 8.86993 27.1377 12.3126C27.465 15.7553 26.4685 19.1934 24.3509 21.9274H24.3526ZM13.6006 23.7991C16.3057 23.7991 18.9 22.7244 20.8128 20.8116C22.7256 18.8988 23.8002 16.3044 23.8002 13.5993C23.8002 10.8941 22.7256 8.29977 20.8128 6.38694C18.9 4.47411 16.3057 3.39949 13.6006 3.39949C10.8955 3.39949 8.30126 4.47411 6.38848 6.38694C4.4757 8.29977 3.40111 10.8941 3.40111 13.5993C3.40111 16.3044 4.4757 18.8988 6.38848 20.8116C8.30126 22.7244 10.8955 23.7991 13.6006 23.7991Z" fill="#3486F4"/>
</svg>
