<svg width="11" height="13" viewBox="0 0 11 13" fill="none" xmlns="http://www.w3.org/2000/svg">
<path d="M10.4833 12.3023V12.3023V2.45836C10.4833 2.02856 10.3011 1.61848 9.98031 1.31771C9.65983 1.01725 9.22711 0.85 8.77778 0.85H2.55556C2.10622 0.85 1.67351 1.01725 1.35302 1.31771C1.03221 1.61848 0.85 2.02856 0.85 2.45836L0.85 12.3023L0.85 12.3023C0.850052 12.3974 0.877655 12.4901 0.928924 12.5703C0.98013 12.6504 1.05274 12.7147 1.13804 12.7576L1.20533 12.6235L1.13804 12.7576C1.2233 12.8004 1.31868 12.8204 1.41419 12.8161C1.50727 12.8119 1.5981 12.7848 1.67751 12.7367L5.66667 10.721L9.65582 12.7367C9.73523 12.7848 9.82606 12.8119 9.91914 12.8161C10.0147 12.8204 10.11 12.8004 10.1953 12.7576C10.2806 12.7147 10.3532 12.6504 10.4044 12.5703C10.4557 12.4901 10.4833 12.3974 10.4833 12.3023ZM2.10818 2.05218C2.22527 1.9424 2.38605 1.87918 2.55556 1.87918H8.77778C8.94728 1.87918 9.10806 1.9424 9.22516 2.05218C9.34193 2.16165 9.40555 2.30799 9.40555 2.45836V11.3801L5.95459 9.67989C5.86805 9.62767 5.76812 9.60033 5.66667 9.60033C5.56521 9.60033 5.46529 9.62767 5.37874 9.67989L1.92778 11.3801V2.45836C1.92778 2.30799 1.9914 2.16165 2.10818 2.05218Z" fill="#398EF0" stroke="#3486F4" stroke-width="0.3"/>
</svg>
