<svg width="13" height="14" viewBox="0 0 13 14" fill="none" xmlns="http://www.w3.org/2000/svg">
<path d="M12.1847 5.17617L8.48741 4.61348L6.83463 1.10469C6.78948 1.00862 6.71522 0.930851 6.62348 0.883579C6.3934 0.764637 6.11381 0.863756 5.99877 1.10469L4.34598 4.61348L0.648685 5.17617C0.546751 5.19142 0.453554 5.24174 0.3822 5.31799C0.295937 5.41083 0.248403 5.53574 0.250041 5.66527C0.251679 5.7948 0.302357 5.91834 0.390937 6.00876L3.06598 8.73986L2.43399 12.5963C2.41917 12.686 2.42865 12.7783 2.46135 12.8627C2.49406 12.947 2.54868 13.0201 2.61902 13.0736C2.68937 13.1271 2.77262 13.1589 2.85934 13.1654C2.94606 13.1718 3.03278 13.1527 3.10966 13.1102L6.4167 11.2895L9.72373 13.1102C9.81401 13.1605 9.91886 13.1773 10.0193 13.159C10.2727 13.1133 10.4431 12.8617 10.3994 12.5963L9.76741 8.73986L12.4425 6.00876C12.5153 5.93404 12.5633 5.83645 12.5779 5.72971C12.6172 5.46285 12.4395 5.21582 12.1847 5.17617Z" fill="url(#paint0_linear_86_159)"/>
<defs>
<linearGradient id="paint0_linear_86_159" x1="6.41667" y1="0.833252" x2="6.41667" y2="13.1666" gradientUnits="userSpaceOnUse">
<stop stop-color="#3486F4"/>
<stop offset="1" stop-color="#2AD1FB"/>
</linearGradient>
</defs>
</svg>
