<svg width="18" height="15" viewBox="0 0 18 15" fill="none" xmlns="http://www.w3.org/2000/svg">
<path d="M8.76136 3.89139L3.00024 8.97622V14.4642C3.00024 14.6063 3.05291 14.7426 3.14667 14.8431C3.24043 14.9436 3.3676 15 3.5002 15L7.0018 14.9903C7.13397 14.9896 7.26049 14.9328 7.35372 14.8324C7.44694 14.732 7.49927 14.5961 7.49927 14.4545V11.2496C7.49927 11.1075 7.55194 10.9712 7.6457 10.8707C7.73946 10.7703 7.86663 10.7138 7.99923 10.7138H9.99907C10.1317 10.7138 10.2588 10.7703 10.3526 10.8707C10.4464 10.9712 10.499 11.1075 10.499 11.2496V14.4522C10.4988 14.5227 10.5116 14.5925 10.5366 14.6577C10.5617 14.7229 10.5985 14.7822 10.6449 14.8321C10.6914 14.882 10.7465 14.9216 10.8073 14.9487C10.8681 14.9757 10.9332 14.9896 10.999 14.9896L14.4994 15C14.6319 15 14.7591 14.9436 14.8529 14.8431C14.9466 14.7426 14.9993 14.6063 14.9993 14.4642V8.97254L9.23944 3.89139C9.17173 3.8329 9.08737 3.80101 9.0004 3.80101C8.91343 3.80101 8.82907 3.8329 8.76136 3.89139V3.89139ZM17.8616 7.34747L15.2493 5.03996V0.401831C15.2493 0.295258 15.2098 0.193051 15.1395 0.117694C15.0691 0.0423357 14.9738 0 14.8743 0H13.1245C13.025 0 12.9296 0.0423357 12.8593 0.117694C12.789 0.193051 12.7495 0.295258 12.7495 0.401831V2.83324L9.95189 0.36667C9.68341 0.129918 9.34653 0.000473271 8.99884 0.000473271C8.65115 0.000473271 8.31426 0.129918 8.04579 0.36667L0.136083 7.34747C0.0981131 7.3811 0.0666992 7.42242 0.043636 7.46907C0.0205728 7.51571 0.00631225 7.56677 0.00166929 7.61933C-0.00297366 7.67188 0.00209192 7.7249 0.0165766 7.77536C0.0310613 7.82581 0.0546812 7.87271 0.0860867 7.91338L0.8829 8.95145C0.91422 8.99226 0.952744 9.02605 0.996266 9.05088C1.03979 9.07572 1.08745 9.09111 1.13653 9.09618C1.18562 9.10125 1.23515 9.0959 1.28229 9.08043C1.32944 9.06496 1.37328 9.03968 1.4113 9.00603L8.76136 2.51847C8.82907 2.45998 8.91343 2.42808 9.0004 2.42808C9.08737 2.42808 9.17173 2.45998 9.23944 2.51847L16.5898 9.00603C16.6278 9.03968 16.6715 9.06499 16.7186 9.08052C16.7657 9.09604 16.8152 9.10147 16.8642 9.09649C16.9133 9.09152 16.9609 9.07623 17.0044 9.05152C17.048 9.0268 17.0865 8.99314 17.1179 8.95245L17.9147 7.91439C17.9461 7.87348 17.9696 7.82634 17.9839 7.77566C17.9982 7.72499 18.0031 7.67178 17.9981 7.6191C17.9932 7.56641 17.9786 7.5153 17.9552 7.46868C17.9317 7.42207 17.8999 7.38087 17.8616 7.34747V7.34747Z" fill="url(#paint0_diamond_534_2174)"/>
<defs>
<radialGradient id="paint0_diamond_534_2174" cx="0" cy="0" r="1" gradientUnits="userSpaceOnUse" gradientTransform="translate(2.64706 6.99992) rotate(22.8124) scale(57.4337 66.3921)">
<stop offset="0.182292" stop-color="white"/>
<stop offset="1" stop-color="white" stop-opacity="0"/>
</radialGradient>
</defs>
</svg>
