<svg width="13" height="11" viewBox="0 0 13 11" fill="none" xmlns="http://www.w3.org/2000/svg">
<path fill-rule="evenodd" clip-rule="evenodd" d="M-4.76837e-05 5.49998C-4.76837e-05 5.29163 0.0827169 5.09182 0.230042 4.9445C0.377365 4.79717 0.57718 4.71441 0.785527 4.71441L9.8872 4.71441L6.51394 1.34272C6.4409 1.26968 6.38296 1.18297 6.34343 1.08754C6.3039 0.992107 6.28356 0.889826 6.28356 0.786531C6.28356 0.683238 6.3039 0.580956 6.34343 0.485525C6.38296 0.390095 6.4409 0.303384 6.51394 0.230345C6.58698 0.157305 6.67369 0.0993671 6.76912 0.0598383C6.86455 0.0203094 6.96683 -3.52859e-05 7.07013 -3.52859e-05C7.17342 -3.52859e-05 7.2757 0.0203094 7.37113 0.0598383C7.46656 0.0993671 7.55327 0.157305 7.62631 0.230345L12.3398 4.94379C12.4129 5.01677 12.471 5.10346 12.5106 5.1989C12.5502 5.29434 12.5706 5.39665 12.5706 5.49998C12.5706 5.60331 12.5502 5.70563 12.5106 5.80107C12.471 5.89651 12.4129 5.9832 12.3398 6.05617L7.62631 10.7696C7.4788 10.9171 7.27874 11 7.07013 11C6.86152 11 6.66145 10.9171 6.51394 10.7696C6.36643 10.6221 6.28356 10.422 6.28356 10.2134C6.28356 10.0048 6.36643 9.80475 6.51394 9.65725L9.8872 6.28556L0.785527 6.28556C0.57718 6.28556 0.377365 6.20279 0.230042 6.05547C0.0827169 5.90814 -4.76837e-05 5.70833 -4.76837e-05 5.49998Z" fill="white"/>
</svg>
