<svg width="19" height="19" viewBox="0 0 19 19" fill="none" xmlns="http://www.w3.org/2000/svg">
<path d="M9.5 0.3125C4.42637 0.3125 0.3125 4.42637 0.3125 9.5C0.3125 14.5736 4.42637 18.6875 9.5 18.6875C14.5736 18.6875 18.6875 14.5736 18.6875 9.5C18.6875 4.42637 14.5736 0.3125 9.5 0.3125ZM9.5 14.832C9.04678 14.832 8.67969 14.4649 8.67969 14.0117C8.67969 13.5585 9.04678 13.1914 9.5 13.1914C9.95322 13.1914 10.3203 13.5585 10.3203 14.0117C10.3203 14.4649 9.95322 14.832 9.5 14.832ZM10.7899 10.3306C10.6042 10.4023 10.4444 10.5283 10.3314 10.6922C10.2183 10.8561 10.1573 11.0502 10.1562 11.2493V11.7148C10.1562 11.8051 10.0824 11.8789 9.99219 11.8789H9.00781C8.91758 11.8789 8.84375 11.8051 8.84375 11.7148V11.2739C8.84375 10.8002 8.98115 10.3326 9.25186 9.94297C9.51641 9.56152 9.88555 9.27031 10.3203 9.1042C11.0176 8.83555 11.4688 8.25107 11.4688 7.61328C11.4688 6.70889 10.5849 5.97266 9.5 5.97266C8.41514 5.97266 7.53125 6.70889 7.53125 7.61328V7.76914C7.53125 7.85938 7.45742 7.9332 7.36719 7.9332H6.38281C6.29258 7.9332 6.21875 7.85938 6.21875 7.76914V7.61328C6.21875 6.80732 6.57148 6.05469 7.21133 5.49482C7.82656 4.95547 8.63867 4.66016 9.5 4.66016C10.3613 4.66016 11.1734 4.95752 11.7887 5.49482C12.4285 6.05469 12.7812 6.80732 12.7812 7.61328C12.7812 8.79863 11.9999 9.86504 10.7899 10.3306Z" fill="#414141" fill-opacity="0.5"/>
</svg>
