<svg width="23" height="19" viewBox="0 0 23 19" fill="none" xmlns="http://www.w3.org/2000/svg">
<path d="M11.1951 4.9291L3.83364 11.3699V18.3214C3.83364 18.5013 3.90094 18.674 4.02075 18.8012C4.14055 18.9285 4.30305 19 4.47248 19L8.94675 18.9877C9.11563 18.9868 9.2773 18.9149 9.39641 18.7877C9.51553 18.6606 9.5824 18.4885 9.58239 18.3091V14.2495C9.58239 14.0695 9.6497 13.8969 9.76951 13.7696C9.88931 13.6423 10.0518 13.5708 10.2212 13.5708H12.7766C12.946 13.5708 13.1085 13.6423 13.2283 13.7696C13.3481 13.8969 13.4154 14.0695 13.4154 14.2495V18.3061C13.4152 18.3954 13.4315 18.4839 13.4635 18.5664C13.4955 18.649 13.5425 18.7241 13.6018 18.7873C13.6612 18.8506 13.7317 18.9008 13.8093 18.935C13.887 18.9692 13.9702 18.9869 14.0543 18.9869L18.5269 19C18.6964 19 18.8589 18.9285 18.9787 18.8012C19.0985 18.674 19.1658 18.5013 19.1658 18.3214V11.3652L11.806 4.9291C11.7194 4.85501 11.6116 4.81461 11.5005 4.81461C11.3894 4.81461 11.2816 4.85501 11.1951 4.9291ZM22.8231 9.3068L19.4852 6.38395V0.508985C19.4852 0.373994 19.4347 0.244532 19.3449 0.149078C19.255 0.0536252 19.1332 0 19.0061 0H16.7701C16.6431 0 16.5212 0.0536252 16.4313 0.149078C16.3415 0.244532 16.291 0.373994 16.291 0.508985V3.58877L12.7163 0.464449C12.3733 0.164563 11.9428 0.000599477 11.4985 0.000599477C11.0542 0.000599477 10.6238 0.164563 10.2807 0.464449L0.173884 9.3068C0.125367 9.3494 0.0852268 9.40173 0.0557571 9.46082C0.0262874 9.5199 0.00806566 9.58458 0.00213299 9.65115C-0.00379968 9.71772 0.00267301 9.78487 0.0211812 9.84878C0.0396894 9.91269 0.0698704 9.9721 0.11 10.0236L1.12815 11.3385C1.16817 11.3902 1.2174 11.433 1.27301 11.4645C1.32862 11.4959 1.38952 11.5154 1.45224 11.5218C1.51495 11.5283 1.57824 11.5215 1.63849 11.5019C1.69873 11.4823 1.75475 11.4503 1.80332 11.4076L11.1951 3.19007C11.2816 3.11598 11.3894 3.07557 11.5005 3.07557C11.6116 3.07557 11.7194 3.11598 11.806 3.19007L21.1981 11.4076C21.2466 11.4503 21.3025 11.4823 21.3627 11.502C21.4228 11.5216 21.4861 11.5285 21.5487 11.5222C21.6114 11.5159 21.6723 11.4966 21.7279 11.4653C21.7835 11.434 21.8328 11.3913 21.8729 11.3398L22.891 10.0249C22.9311 9.97308 22.9612 9.91336 22.9795 9.84917C22.9977 9.78498 23.0039 9.71759 22.9976 9.65086C22.9913 9.58412 22.9726 9.51938 22.9427 9.46033C22.9128 9.40129 22.8721 9.34911 22.8231 9.3068Z" fill="#414141"/>
</svg>
