<svg width="23" height="21" viewBox="0 0 23 21" fill="none" xmlns="http://www.w3.org/2000/svg">
<path d="M14.375 14.25C14.375 14.6644 14.0534 15 13.6562 15H9.34375C8.94664 15 8.625 14.6644 8.625 14.25V12H0V18.75C0 19.95 1.00625 21 2.15625 21H20.8438C21.9937 21 23 19.95 23 18.75V12H14.375V14.25ZM20.8438 4.5H17.25V2.25C17.25 1.05 16.2437 0 15.0938 0H7.90625C6.75625 0 5.75 1.05 5.75 2.25V4.5H2.15625C1.00625 4.5 0 5.55 0 6.75V10.5H23V6.75C23 5.55 21.9937 4.5 20.8438 4.5ZM14.375 4.5H8.625V3H14.375V4.5Z" fill="#414141"/>
</svg>
